<?xml version="1.0" encoding="UTF-8"?>
<!DOCTYPE svg PUBLIC "-//W3C//DTD SVG 1.1//EN" "http://www.w3.org/Graphics/SVG/1.1/DTD/svg11.dtd">
<!-- Creator: CorelDRAW -->
<svg xmlns="http://www.w3.org/2000/svg" xml:space="preserve" width="200mm" height="34.5146mm" style="shape-rendering:geometricPrecision; text-rendering:geometricPrecision; image-rendering:optimizeQuality; fill-rule:evenodd; clip-rule:evenodd"
viewBox="0 0 200 34.5146"
 xmlns:xlink="http://www.w3.org/1999/xlink">
 <defs>
  <style type="text/css">
   <![CDATA[
    .fil0 {fill:#913CFF}
   ]]>
  </style>
 </defs>
 <g id="Layer_x0020_1">
  <metadata id="CorelCorpID_0Corel-Layer"/>
  <g id="_54457696">
   <path id="_54457648" class="fil0" d="M0.256 10.4059l0 -0.4703c0,-6.0376 4.154,-9.9356 11.7749,-9.9356 8.2217,0 11.8191,3.6407 11.8191,11.477l0.0001 0.8987 -6.9363 0c0,-4.3668 -1.3272,-6.3798 -4.8386,-6.3798l-0.3866 0c-2.785,0 -4.41,1.5414 -4.41,3.6824l0 0.2143c0,2.4401 0.9823,3.7255 5.8652,4.3681 7.2812,0.985 10.9623,3.4682 10.9623,9.6769l0 0.4285c0,6.423 -4.2402,10.1485 -12.0752,10.1485 -7.8795,0 -12.0309,-3.5112 -12.0309,-11.5618l0 -0.3855 6.9338 0c0,4.1972 1.7138,5.9527 4.9273,5.9527l0.3841 0c3.2107,0 4.7939,-1.7125 4.7939,-3.9396l0 -0.2143c0,-2.3983 -1.2384,-3.7256 -6.0768,-4.3682 -7.2811,-0.985 -10.7063,-3.5544 -10.7063,-9.592z"/>
   <path id="_262262096" class="fil0" d="M39.1676 15.9732c1.8862,0 4.2845,-0.7275 4.2845,-4.4962l0 -0.4283c0,-3.7687 -2.3983,-4.4964 -4.2845,-4.4964l-4.3238 0 0 9.4209 4.3238 0zm-4.3238 17.985l-6.9364 0 0 -33.4003 10.9623 0c5.4393,0 11.6051,1.412 11.6051,10.2765l0 0.8569c0,8.9062 -6.1658,10.2765 -11.6051,10.2765l-4.0259 0 0 11.9904z"/>
   <path id="_262262120" class="fil0" d="M65.0892 15.9732c1.8866,0 4.2848,-0.7275 4.2848,-4.4962l0.0002 -0.4283c0,-3.7687 -2.3984,-4.4964 -4.285,-4.4964l-4.3235 0 0 9.4209 4.3235 0zm-4.3235 17.985l-6.9363 0 0 -33.4003 10.9621 0c5.4397,0 11.6052,1.412 11.6052,10.2765l0 0.8569c0,5.3948 -2.2704,8.0506 -5.2671,9.2916l5.2671 12.9753 -7.4928 0 -4.5825 -11.9904 -3.5557 0 0 11.9904z"/>
   <polygon id="_262261880" class="fil0" points="87.2806,33.9582 80.3468,33.9582 80.3468,0.5579 87.2806,0.5579 "/>
   <path id="_262261928" class="fil0" d="M110.428 0.5579l0 23.2086c0,6.8084 -2.8711,10.7481 -9.9383,10.7481 -7.3622,0 -9.8912,-3.9397 -9.8912,-10.833l0.0001 -1.1143 6.5525 0c0,3.9399 0.7287,5.9527 3.1688,5.9527 2.4848,0 3.1693,-2.0128 3.1693,-5.6104l0 -22.3517 6.9388 0z"/>
   <polygon id="_262262024" class="fil0" points="122.004,33.9582 115.068,33.9582 115.068,0.5579 122.004,0.5579 "/>
   <polygon id="_262263640" class="fil0" points="151.173,33.9582 143.851,33.9582 133.058,13.2327 133.272,19.9562 133.272,33.9582 126.723,33.9582 126.723,0.5579 134.046,0.5579 144.794,21.2833 144.579,14.5599 144.579,0.5579 151.173,0.5579 "/>
   <path id="_262263736" class="fil0" d="M164.633 20.7686l5.4811 0 -2.7406 -12.2895 -2.7405 12.2895zm7.5347 -20.2969l8.3522 33.4865 -7.4063 0 -1.6304 -7.1937 -8.1773 0 -1.5832 7.1937 -7.451 0 8.3495 -33.4865 9.5465 0z"/>
   <polygon id="_262263832" class="fil0" points="182.079,0.5559 200,0.5559 200,6.4442 182.079,6.4442 "/>
  </g>
 </g>
</svg>
