<?xml version="1.0" encoding="utf-8"?>
<!-- Generator: Adobe Illustrator 23.0.3, SVG Export Plug-In . SVG Version: 6.00 Build 0)  -->
<svg version="1.1" id="Layer_1" xmlns="http://www.w3.org/2000/svg" xmlns:xlink="http://www.w3.org/1999/xlink" x="0px" y="0px"
	 viewBox="0 0 1200 847" style="enable-background:new 0 0 1200 847;" xml:space="preserve">
<g id="layer101">
	<path d="M1156.5,218.3c-0.6-9.6-1-11.7-3.2-15.1c-1.4-2.2-4-4.8-5.7-5.8c-3.1-1.9-34.8-12.9-72.1-25c-11-3.6-23.6-7.8-28-9.3
		c-4.4-1.6-10.9-3.8-14.5-5c-3.6-1.2-33.3-11.2-66-22.2c-32.7-11.1-63.5-21.3-68.5-22.9c-4.9-1.5-16.9-5.6-26.5-8.9
		c-9.6-3.4-23.6-8.1-31-10.6c-7.4-2.4-27.4-9.1-44.5-14.8c-117.7-39.4-116.7-39.2-126-38.9c-2.7,0.1-120.4,0.5-261.5,0.8
		c-154.4,0.3-230.2,0.3-257-0.2c-3.3,0.2-6.5,0.2-9.7,0c-4.9,0-9.8,0.2-14.7,0.2c-0.7,0.3-1.6,0.5-2.5,0.5c-4.9,0-10.8,3.8-13,8.4
		c-2.1,4.2-2.1,5.2-2.1,113.2v109l2.3,4.4c2.7,5.6,9.3,9.4,14.6,8.6c4.2-0.6,10.5-4.7,12.8-8.3c1.7-2.5,1.8-9,2.3-98.8
		c0.5-90.9,0.6-96.2,2.3-98.9c4-6-15-5.6,269.4-5.6c219.7,0,261.6,0.2,265.8,1.4c7.4,2,16.4,5,31,9.9c7.2,2.5,18.6,6.3,25.5,8.5
		c6.9,2.3,18.8,6.3,26.5,9.1c7.7,2.7,19.6,6.8,26.5,9c15.2,4.8,23.8,7.7,31,10.4c3,1.1,8.2,2.9,11.5,3.8c3.3,1,11.9,3.8,19,6.2
		c22.9,7.8,88.9,30,98,32.9c3.3,1,8.3,2.7,11,3.7c7,2.6,34.5,11.8,43.5,14.7c7.1,2.2,31.1,10.2,37.5,12.4c1.7,0.6,15.6,5.3,31,10.5
		c48.5,16.3,46.9,15.6,50.1,20.9c1.8,3,1.9,10.5,2.2,269.1c0.2,146.3,0,267.9-0.3,270.3c-0.9,6.3-4.2,9.7-9.4,9.5
		c-2.2-0.1-4.1,0.2-4.1,0.8c0,0.9-583.2,0.7-596.4-0.3c-5.1-0.3-6.2-0.8-8.7-3.6c-1.6-1.8-2.9-4-2.9-5c0-0.9-0.1-43.8-0.3-95.2
		c-0.2-91.3-0.2-93.6-2.2-97.4c-2.5-5-6-7.6-11.6-8.7c-5.8-1.1-348.5-1.1-352.5,0c-7.6,2.2-11.4,7.6-11.4,16c0,4.6,0.4,5.5,4.3,9.5
		c3.3,3.4,5.3,4.6,9.5,5.5c3.8,0.8,50.9,1.1,164.3,1.1H461l3.8,3.4l3.7,3.4l0.5,96.4c0.4,70.6,0.8,96.8,1.7,98.3
		c1.9,3.3,6.8,7.5,9.9,8.5c4.1,1.2,660,1.3,664.3,0c4-1.1,7.6-4.2,9.9-8.5c1.6-2.8,1.7-24.9,2-286.5
		C1157,357.1,1156.8,224.5,1156.5,218.3z"/>
	<path d="M798.5,747.5c-12.8-2.8-23.7-9.9-29.1-19.1c-3.3-5.6-4-8.5-5.9-22.4c-1.8-14.1-2.2-82.1-0.4-91.5
		c2.3-12.4,6.3-16.1,17.1-15.9c6.3,0.1,9.7,1.8,12.5,6.1c1.6,2.4,1.9,6.8,2.4,43.3c0.5,39.5,0.6,40.7,3.1,49
		c3,10.3,4.8,13.8,8.9,17.9c5.5,5.5,8.5,6.6,18.4,6.6c10.8-0.1,15.2-2,23-10c10.2-10.4,11.4-16.5,11.5-59.5c0-35.6,0.8-42.8,4.9-48
		c5.2-6.5,15.5-7.4,23.1-2c5.6,4,5.5,3,5.5,72.7c0,63.2,0,64.2-2.1,66.9c-3.8,5.2-7,6.8-13,6.8c-6.3-0.1-9.7-2.1-12.9-7.4
		c-1.1-1.8-3.3-4.6-4.8-6.3c-2.4-2.5-3.3-2.9-6.3-2.4c-2,0.3-5.5,2.3-8.3,4.7C834.2,746.9,815.1,751.2,798.5,747.5z"/>
	<path d="M947.5,748.3c-3.2-0.8-8.4-5.1-10.3-8.6c-1.6-3-1.7-9.4-1.7-93.2c0-83.7,0.1-90.3,1.8-94.6c2.3-6.1,6.5-9.9,11.5-10.6
		c5.5-0.7,8.5,0.2,12.7,3.8c5.7,5,6.5,9.5,6.5,37.1c0,19,0.3,24.5,1.5,26.7c2.8,5.5,8.2,4.8,18.4-2.2c9.6-6.6,14.9-8,30.1-8.1
		c12.2,0,14.3,0.3,21.3,2.7c10.6,3.7,12.5,4.8,19,10.7c8.1,7.4,12,13.2,15.9,24c9.9,26.9,9.7,48.1-1,75.5
		c-8.9,23-29.9,37.5-54.3,37.5c-6.9,0-19.3-2.3-24-4.4c-1.9-0.9-5.9-3.4-8.9-5.6c-10.9-7.9-15.3-7.7-20.6,0.5
		c-1.9,3-4.5,6.1-5.7,6.9C957.2,748,950.5,749.1,947.5,748.3z M1021.6,720c8-3.9,14.6-11.1,19.2-20.8l1.7-3.6c1.3-2.7,2-5.7,2.1-8.7
		l0.2-11.7c0.4-17.7-0.1-20.3-5.6-32c-3.1-6.6-9.9-13.9-15.7-16.7c-6-3-24.3-2.9-30,0.2c-5.4,2.9-14,11.4-16.6,16.4
		c-3.8,7.6-7.1,19.3-7.6,27.4c-0.6,9.3,2.1,22.5,6.3,31.2c2.8,5.9,12.6,15.5,18.2,17.9C1005.3,724.6,1011.8,724.7,1021.6,720z"/>
	<path d="M561,746.9c-3.9-1.6-6.1-4-8.6-9.4l-2.4-5v-87.1c0-94.2-0.1-92.4,5.3-98.3c6.5-7,19.9-6.8,25.6,0.5c5.3,6.7,5.5,8,6,39.6
		c0.6,28.1,0.7,29.8,2.7,32.5c3.7,4.9,6,5.2,43.9,5.2c38.4-0.1,42.4-0.5,45.9-5.2c2-2.7,2.1-4.3,2.6-35.1l0.5-32.3l2.7-3.5
		c5.7-7.5,16.9-9,24.3-3.3c6.8,5.1,6.5,0,6.5,99.5c0,100.4,0.4,94.5-7.1,99.9c-3.5,2.6-5.1,3.1-9.9,3.1c-6.3,0-10.6-2.2-14.4-7.3
		c-2-2.7-2.1-4.3-2.6-40.5c-0.5-34.1-0.7-37.9-2.3-40.3c-3.4-5.1-5-5.3-46.3-5.2c-33.9,0-38.6,0.2-40.8,1.6c-5,3.3-5.1,4-5.6,40.7
		l-0.5,34.5l-2.6,5.6c-3.4,7.2-7.3,10-14.7,10.5C566.1,747.8,562.4,747.5,561,746.9z"/>
	<path d="M891.7,387.3c-1.5-4.3-3.7-7.2-6.4-8.5c-0.5-0.1-1-0.3-1.5-0.5c-3.2,0-6.5-0.2-9.8-0.4c-0.1,0-0.2,0-0.3,0h-0.1
		c-0.1,0-0.2,0-0.3,0c-0.1,0-0.3,0-0.4,0c-2.2,0-7.2,4.6-12.2,11.3c-3.9,5.1-7.8,5.1-14.5-0.2c-7.3-5.8-15.8-9.6-24.1-10.7
		c-4.8-0.2-9.6-0.3-14.4-0.7c-1.1,0.2-2.5,0.3-4,0.3c-12.3,0-27.9,7.2-37.4,17.2c-13.7,14.6-19.6,39.2-16.4,68.8
		c2.7,25.5,15.6,45.7,34.8,54.7c7.7,3.7,8,3.7,22.7,4.1c18.3,0.5,24.8-0.9,33.6-7.4c6.4-4.7,9.7-5.9,13.4-5c3.7,0.9,5,5.4,4.2,14.9
		c-1.3,15.4-6,25.5-14,30.2c-5.4,3.1-18.3,6.5-25,6.5c-6.4,0-18.7-3.3-24.2-6.5c-2.3-1.3-6.9-5.6-10.3-9.4
		c-6.2-6.9-12.5-11.1-17-11.1c-3.9,0-9.1,3.1-11.7,6.9c-4.8,7-2.4,15.2,7.2,24.8c7.3,7.3,15.9,11.3,34.4,15.9c4,1,11,1.3,25.5,1
		c19.5-0.3,20.3-0.4,30-3.5c22.9-7.5,33-18.7,38.1-42.6c1.8-8.4,1.9-13.6,1.9-77C893.5,397.2,893.4,392.1,891.7,387.3z M855.5,475.5
		c-4.7,10.6-14.9,19.8-25.4,22.9c-6.7,2-12,1.9-18.5,0c-6.2-1.9-8.9-3.6-14.9-9.3c-6.1-5.8-9.2-11.7-11.7-22.6
		c-2.4-10.3-2.5-18.1-0.4-28.9c2-10.3,2.9-12.9,7.5-19.6c7.8-11.6,14.7-15.4,27.9-15.4c4.7,0,10.4,0.5,12.7,1.2
		c5.7,1.7,13.1,6.9,16.9,11.9c5.5,7.2,11.4,26.1,11.4,36.4C861,457.6,858.2,469.4,855.5,475.5z"/>
	<path d="M715.7,467.2c-0.2-29.9-0.7-47.2-1.6-52.1c-1.5-8.8-6-18.6-11.4-24.7c-4.4-5.1-16.1-11.2-22.8-12.1
		c-1.4-0.2-2.8-0.5-3.7-0.8c0,0,0,0,0,0c-0.5-0.1-0.9-0.2-1.3-0.3c-1.3,0-2.6,0-3.8-0.2c-1.1-0.1-2.2-0.2-3.3-0.3
		c-7.2,0.5-17.8,1.9-21.6,3.2c-3.1,1.1-8.1,3.7-11,5.7c-10.4,7.2-11,7.5-14.2,6.8c-2-0.4-4.2-2.3-6.6-5.3c-3.4-4.6-8.8-8.6-12-9.1
		c-2.7-0.2-5.4-0.4-8.1-0.2c-0.2,0.1-0.4,0.1-0.6,0.1c-3,0-7.4,5-8.7,9.8c-1.6,6.2-2.3,115.3-0.8,122.7c0.6,2.8,1.3,6,1.5,7.3
		c0.2,1.2,1.7,3.7,3.3,5.5c2.9,3.1,3.1,3.2,11.4,3.2c9.6,0,11.3-0.9,15-8c2-3.8,2.2-5.9,2.9-42c0.9-49.8,1.1-51.1,10.3-61.3
		c7.4-8.2,12.2-10.5,22.7-11c14-0.7,19.5,2.3,25.3,13.8c3.9,7.7,4.5,15.1,4.5,56c0,38.3,0,38.5,2.4,43.5c2.6,5.7,5.1,8.2,9.2,9.5
		c4.1,1.2,7.6,1.2,11.5-0.1c4.8-1.6,7.4-4.3,9.9-10C716,512.1,716.1,511,715.7,467.2z"/>
	<path d="M984.5,526.8c-17.3-1.3-29.2-6.6-41.6-18.6c-6.9-6.6-8.8-9.1-13-17.7c-6.9-14.1-8.2-21.1-7.7-41.5
		c0.4-15.5,0.6-17.1,3.7-26c4.5-12.9,7.1-17.1,16.5-26.6c9.6-9.6,14.1-12.4,26.1-16c8.2-2.5,10.5-2.7,26-2.8
		c16.8-0.1,17.1-0.1,26.8,3.2c10.9,3.8,18.4,8.7,26,17.2c9.2,10.2,13.5,20.3,14.4,34.1c1.1,15.6-1.5,22.5-9.5,25
		c-2.5,0.8-17,1.4-43.7,1.8c-43.2,0.7-44.1,0.8-47.9,6.3c-2.5,3.5-2,11.1,1.1,17.6c3.1,6.6,10.9,15.3,16.8,18.8
		c6.2,3.6,16.9,5.1,25.8,3.6c8.9-1.6,12.3-3.3,22.3-11.4c16.4-13.1,22.9-15.8,29.1-11.9c3.9,2.5,5,7,3.3,14
		c-0.9,3.9-2.6,6.5-7.2,11.6c-5.2,5.6-7.7,7.4-17.3,12.1c-8.5,4.2-13,5.7-18.1,6.4C1004.7,527.5,995.9,527.7,984.5,526.8z
		 M1022.4,440.6c9.1-3.8,6-20.5-6-32.2c-7.1-7-12.5-8.8-24.8-8.2c-7.7,0.3-9.9,0.8-13.7,3c-6.2,3.7-12.5,10.7-16,18.1
		c-4.5,9.5-3.5,16.7,2.6,19.3C969,442.6,1017.7,442.6,1022.4,440.6z"/>
	<path d="M196.8,449c-1.1-0.6-2.3-1-3.7-1.4c-0.2-0.1-0.5-0.1-0.7-0.2c-4.8-1-9.7-1.1-13.9,1.2c-2.8,2.4-5.9,7.2-8.4,13.2
		c-6.2,15-15.9,25.7-29.1,32l-7.5,3.5h-29l-7.5-3.6c-22.2-10.4-33.9-33.6-34-66.8c0-23.1,4.9-41.6,15.1-56.6
		c10.6-15.6,36.9-25.1,55-19.8c13.2,3.9,26.5,14.9,33.9,28c4.5,8,9.5,14.1,13.2,16c4.3,2.2,12.8,1.1,16.7-2.2
		c5.7-4.8,6.4-17.3,1.6-28.1c-5.2-11.7-10.7-18.5-20-25.1c-11.3-8.1-19.8-12.4-31-15.6c-8.2-2.4-10.5-2.6-27.8-2.6
		c-18.3,0-19.3,0.1-28.9,3.1c-21.7,6.6-42.7,23.5-52.1,41.6C28,386.5,25,399.5,25,425.8c0,20.5,1.2,27,8.5,46.2
		c4,10.6,14.3,26.7,20.9,32.8C66.8,516.2,84.1,524.5,99,526c4.1,0.5,16.1,0.7,26.5,0.5c18.2-0.3,19.4-0.4,28-3.4
		c10.4-3.6,25.2-12.9,31.7-20c6.5-6.9,13.5-19.6,15.8-28.6c2.4-9.5,2.5-12.7,0.4-18.9C200.5,452.9,198.8,450.6,196.8,449z"/>
	<path d="M367.8,402.3c-5.6-11.3-13.8-18.9-24.7-22.8c-1-0.3-2.6-0.7-4.5-1c-9.4-1.1-18.9-0.9-28.4-0.4c-4,0.6-11.9,4-18.9,8.2
		c-6.9,4.2-10.2,4.6-12.9,1.6c-1.7-1.9-2-4.4-2.5-26.8c-0.6-26.4-1.6-31.9-6.4-36.9c-4.1-4.3-15.6-5.2-21.2-1.6
		c-1.3,0.8-3.1,2.9-4,4.7c-1.7,3-1.8,9.3-2.1,93.7c-0.2,61.3,0.1,92.1,0.8,95.6c1,4.9,3.6,8.4,7,9.7c0.8,0.3,4.5,0.6,8.1,0.6
		c9.1,0.1,12.6-2.3,15.3-10.4c1.7-5.3,2-10.4,2.7-44.5c0.7-37.9,1.3-44,4.5-50.2c2.6-5.1,13.3-14.6,18.2-16.3
		c5.8-1.9,18.8-2,23.4-0.1c4.4,1.9,10.4,8.5,13.2,14.5c2,4.4,2.1,6.3,2.6,49.1c0.5,43.8,0.5,44.6,2.8,49.1c3.5,7.2,5.3,8.3,13.5,8.7
		c8.8,0.4,13.1-1.6,16.1-7.4c2-3.7,2.1-5.8,2.4-47.9C373.2,420.6,372.6,412.2,367.8,402.3z"/>
	<path d="M545,498c-1.9-6.7-2.3-11.4-3-42.5c-1.2-45-2.2-51.9-9.2-61c-4.8-6.2-14.1-12.4-21.3-14.6c-2-0.2-4-0.6-6.1-1
		c-0.3,0-0.5-0.1-0.7-0.1c-2.3-0.4-4.7-0.9-7-1.3c-10.6-0.5-31.7-0.4-38.2,0.5c-9.1,1.2-22.3,5.3-27.5,8.5c-2,1.2-6,4.9-9.1,8.2
		c-15.1,16.3-9.9,36.3,8.5,32.9c3-0.6,4.5-1.9,9-8c6.5-8.8,11.8-14,17.1-16.8c5.6-3,27.4-3.9,34-1.4c7.5,2.9,16.4,13.7,16.5,19.9
		c0,3.1-3.1,8.6-6,10.7c-2.9,2-19,6.7-32.5,9.4c-4.4,0.8-10.2,2-13,2.6c-2.7,0.6-8.9,2-13.8,3c-16.2,3.5-25.6,9.7-31.7,21.2
		c-3.2,5.8-3.5,7.1-3.8,16.8c-0.5,12.6,1.5,19.1,8.2,27.3c5,6.1,15.2,12.4,22.3,13.7c2.6,0.5,11.8,0.7,20.4,0.5
		c17.7-0.4,19.9-1.1,37-10.5c12.3-6.9,14-6.8,22,1.5c3.5,3.5,7.7,7.1,9.5,8c7,3.3,15.3,0.9,19.5-5.7
		C548.5,515.8,548.2,509.4,545,498z M506.7,469.8c-0.7,15.7-12,29.1-28.8,34.3c-5.9,1.9-14.5,2.5-16.2,1.3c-1.1-0.2-2.2-0.6-3.1-1.2
		c-0.1,0-0.1,0-0.2-0.1c-3.6-0.9-9.4-5.3-12.4-9.3c-7.3-10.1-3.3-22.6,9.5-29.1c4.2-2.2,21.5-6.7,35.1-9.3
		C503.7,454,507.3,457,506.7,469.8z"/>
	<path d="M649,356.8c-4-1.1-7.5-4-9.8-8.3c-1.5-2.7-1.8-10.8-2.2-79c-0.5-74.4-0.5-76.1-2.6-79.5c-3.3-5.7-4.6-6-29.1-6
		c-18.1,0-23-0.3-26.3-1.6c-7.7-3.1-10.7-10.8-7.2-18.7c3.9-8.7-1.5-8.2,83.2-8.2c70.1,0,74.7,0.1,77.8,1.8c3.4,1.9,6,6.4,6.8,12.1
		c0.7,4.3-2.5,9.6-7.2,12.3c-3.7,2.2-5,2.3-26.9,2.3c-25.5,0-26.9,0.3-29.7,6c-1.7,3.2-1.8,8.9-1.8,74.6c0,44-0.4,73.2-1,76.5
		C670.5,353.9,661,360.2,649,356.8z"/>
	<path d="M968.4,292.6c2.6-2,4.3-2.1,43.4-2.7c35.2-0.4,41.3-0.7,45.2-2.2c5.4-2.1,7.7-4.1,10-8.7c3.2-6.3,3.3-9.9,0.7-20.6
		c-3.8-15.3-7.7-22.5-17.2-32c-10.8-10.6-18.5-14.5-36.6-18.1l-2.3-0.5c-4.2-0.5-8.4-0.7-12.6-0.7c-0.5,0-0.9-0.1-1.3-0.2
		c-1.7,0.1-3.3,0.2-5,0.2l-5.8,1.1c-19,3.6-26.6,7.3-37.6,18.3c-7.2,7.1-9,9.7-13.3,18.7c-7.7,16.1-9.7,33.3-6.5,55.6
		c2,14.1,8,26.6,17.8,36.9c9.7,10.2,24.9,18.1,37.2,19.4c3.9,0.4,14.4,0.6,23.5,0.4c14.6-0.3,17.3-0.6,23-2.8
		c10.8-4,19-8.6,24.1-13.4c5.6-5.2,10.9-15,10.9-20c0-8.1-5.6-12.5-13.4-10.3c-4.3,1.2-5.7,2.2-21.6,15.1c-2.3,1.9-4.5,3.5-6.5,4.8
		c-0.3,0.3-0.7,0.5-1.1,0.8c-0.6,0.3-1.3,0.7-1.9,1c-2,1.1-3.9,1.8-5.7,2.3c-10.6,3.4-23.7,3.7-32.3-2.7c-1.1-0.5-2.2-1.2-3.1-2
		c-0.1-0.1-0.1-0.1-0.2-0.2c-0.1-0.1-0.2-0.2-0.3-0.2c-0.2-0.2-0.5-0.4-0.7-0.6c-1.4-0.8-2.6-1.9-3.4-3.2c-0.6-0.6-1.2-1.2-1.6-1.8
		c-4-5.1-7-11.2-8.7-18C963.7,299.3,964.5,295.4,968.4,292.6z M976.5,240.1c7.8-7.4,13-9.5,23.5-9.6c7.3,0,9.3,0.4,14.2,2.8
		c9.3,4.6,18.3,16.3,19.5,25.6c0.7,5.5-1.8,10.8-6.1,12.6c-2.8,1.2-8.7,1.5-28.3,1.4c-13.6,0-25.8-0.4-26.9-0.9
		C962.3,267.9,964.4,251.5,976.5,240.1z"/>
	<path d="M766.9,353c-2.7-2.8-3.9-5.1-4.4-8.2c-0.3-2.4-0.5-44.3-0.3-93.3l0.3-89l2.3-3.8c3-4.8,6.8-6.7,13.2-6.7
		c8,0,11.6,2,14.5,8.2c2.4,5.1,2.5,6.1,2.6,27.3c0.1,24.4,0.9,29.7,5.1,32.8l2.7,2l4.8-2.5c2.6-1.4,7.4-3.9,10.5-5.7
		c10.1-5.6,27.8-7.7,40.2-4.5c17.7,4.4,27.8,14.9,32.7,33.9c1.7,6.3,1.9,11.7,1.9,53.5c0,43.1-0.2,46.8-1.9,50.5
		c-1,2.2-3.1,5.1-4.5,6.5c-2.4,2.2-3.7,2.5-10.1,2.5c-8,0-11.8-1.8-14.2-6.6c-2.4-5-3.3-19-3.3-51.7c0-43.5-1.1-50.1-9.5-58.4
		c-3.1-3-5.1-4-11.2-5.4c-8.4-1.9-14.2-1.4-20.8,1.5c-9.2,4.1-17.5,14.6-20.6,26.3c-0.8,2.7-1.4,18.9-1.8,44.4l-0.6,40.1l-2.8,3.6
		c-3.9,5.1-7.5,6.7-14.8,6.7C771,357,770.5,356.8,766.9,353z"/>
	<path d="M1117,90.5c-8.4-4-11.5-6.9-14.9-13.6c-7.4-14.8-1.2-31.8,14.2-39.4c14.2-6.9,31.4-1,38.4,13.3c6.8,14,1.1,32.6-12.1,39.4
		c-2.7,1.4-6.6,2.2-12.1,2.5C1123.4,93.1,1121.9,92.8,1117,90.5z"/>
</g>
</svg>
